<svg id="Capa_1" data-name="Capa 1" xmlns="http://www.w3.org/2000/svg" viewBox="0 0 800 320"><defs><style>.cls-1{fill:#008706;stroke:#bf0000;stroke-miterlimit:10;stroke-width:7px;}</style></defs><polygon class="cls-1" points="667.72 182.72 682.16 144.32 640.66 172.55 667.72 182.72"/><path class="cls-1" d="M707.23,59.88a113,113,0,1,0,66,145.56A113,113,0,0,0,707.23,59.88ZM697,215.36l-14.61-5.49-8.51,22.61-21.83-8.21,8.51-22.62-48.17-18.11,7.09-18.86,77.89-52.15,19,7.13-26.81,71.28,14.61,5.49Z"/><polygon class="cls-1" points="138.14 173.3 134.65 132.42 109.34 175.75 138.14 173.3"/><path class="cls-1" d="M121,45.4a113,113,0,1,0,122.2,103A113,113,0,0,0,121,45.4Zm57.71,144.74-15.56,1.33,2.06,24.07-23.25,2-2-24.07-51.28,4.37-1.71-20.07,47.87-80.59,20.17-1.72,6.47,75.88L176.94,170Z"/><path class="cls-1" d="M380,201a10.88,10.88,0,0,1-7.18-2.5q-3.16-2.55-5.29-10.3t-2.34-28.52q-.21-20.78,2-29.58,1.68-6.78,4.82-9.42a10.92,10.92,0,0,1,7.17-2.69l6.23,28.95-4.8,20,3.24,24-.89,11"/><path class="cls-1" d="M368.4,251.09l.79-21,10.95-10.34q-16.93.18-27.43-13t-10.83-47.12q-.33-33.35,10.92-48.1Q362.1,99.39,379,99.21L371.7,78.05l3.84-16,2.9-15.54a113,113,0,0,0,2.22,226Z"/><path class="cls-1" d="M412.72,197a11,11,0,0,0,7.34-2.19q3.31-2.43,5.45-9.08,2.81-8.55,4-29.28t-.38-28.62q-1.59-7.87-4.57-10.67a10.84,10.84,0,0,0-7-3l5.78,30.78-4.87,14.74-.41,24Z"/><path class="cls-1" d="M408.52,268.39A113,113,0,1,0,421.79,42.77l-8.1,28.46,5,24.18q16.82,1,25.58,13.77,10.46,15.13,8.48,48.66t-14.21,47.4q-10.11,11.5-26.93,10.51l-10.15,12-.71,12Z"/></svg>