<svg xmlns="http://www.w3.org/2000/svg" viewBox="0 0 540.07 151.53"><defs><style>.cls-1{fill:#fff;}.cls-2{fill:#fc0000;}.cls-3{fill:#00ff17;}</style></defs><g id="Capa_2" data-name="Capa 2"><g id="Capa_1-2" data-name="Capa 1"><polygon class="cls-1" points="511.56 123.67 299.99 123.67 299.56 112.6 511.56 112.66 511.56 123.67"/><path class="cls-2" d="M59.49,140.81a10.57,10.57,0,0,1-2.94,7.73,10.34,10.34,0,0,1-7.68,3h-38a10.65,10.65,0,0,1-7.78-3,10.37,10.37,0,0,1-3-7.73V102.47H13.42v37.18H46.07v-36L4.35,53.21A17.51,17.51,0,0,1,0,41.72V11.11A10.37,10.37,0,0,1,3,3.38a10.65,10.65,0,0,1,7.78-3H48.87a10.34,10.34,0,0,1,7.68,3,10.57,10.57,0,0,1,2.94,7.73V46.26H46.07v-34H13.42V44.14L55.34,94.55a17.27,17.27,0,0,1,4.15,11.3Z"/><path class="cls-2" d="M147.09,140.81a10.4,10.4,0,0,1-3,7.73,10.65,10.65,0,0,1-7.78,3H94a10.25,10.25,0,0,1-10.72-10.72V11.11a10.48,10.48,0,0,1,3-7.73A10.5,10.5,0,0,1,94,.39h42.3a10.65,10.65,0,0,1,7.78,3,10.4,10.4,0,0,1,3,7.73Zm-13.43-1.16V12.27h-37V139.65Z"/><path class="cls-2" d="M219.91,12.27H184.66V69.63h32.45V81.71H184.66v69.82H171.23V.39h48.68Z"/><path class="cls-2" d="M299.39,151.53H286.07l-6.51-27.93h-30l-4.15,27.93H232.46v-.39L259.41,0h13.23ZM278.56,113.6,265.14,31.22l-13.33,81.89Z"/><path class="cls-3" d="M377.43,80.74a10.42,10.42,0,0,1-10.82,10.82H331v60H317.55V.39h49.06a10.65,10.65,0,0,1,7.78,3,10.4,10.4,0,0,1,3,7.73ZM364,79.58V12.27H331V79.58Z"/><path class="cls-3" d="M459.62,151.53H446.29l-5.73-27.93h-30l-4.93,27.93H392.69v-.39L419.63,0h13.23ZM439.56,112.6,426,24.14,412.56,112.6Z"/><path class="cls-3" d="M540.07,124.2q0,12-7.88,19.65t-19.84,7.68H477.77V.39h34.58q12.07,0,19.89,7.67t7.83,19.66Zm-13.43-1.35v-94q0-7.44-4.68-12a16.64,16.64,0,0,0-12.12-4.58H491.2V139.65h17.86q7.83,0,12.7-4.49T526.64,122.85Z"/><rect class="cls-3" x="18.85" y="106.6" width="21.43" height="25" rx="4.39"/><polygon class="cls-1" points="306.56 123.6 27.56 123.6 30.06 112.6 306.56 112.6 306.56 123.6"/></g></g></svg>