<svg xmlns="http://www.w3.org/2000/svg" viewBox="0 0 195.16 138.86"><defs><style>.cls-1{fill:none;stroke:#000;stroke-miterlimit:10;stroke-width:4px;}</style></defs><g id="Capa_2" data-name="Capa 2"><g id="Layer_1" data-name="Layer 1"><path class="cls-1" d="M150.71,81.57V98.29a38.57,38.57,0,0,1-38.57,38.57H40.57A38.57,38.57,0,0,1,2,98.29V41.72A38.57,38.57,0,0,1,40.57,3.15h71.57a38.56,38.56,0,0,1,38.57,38.57l.11,17.68-27,.32V58.11l-.11-16.39a8.56,8.56,0,0,0-8.57-8.57H38.43a8.56,8.56,0,0,0-8.57,8.57v57a8.57,8.57,0,0,0,8.57,8.57h76.71a8.57,8.57,0,0,0,8.57-8.57V81.9Z"/><path class="cls-1" d="M163.57,2.29s33.86,6.86,29.14,47.57l-.85,86.57H164.43V81.15l5.14.42,10.29-22.28-15.43-.43L165.29,40s.42-9.85-10.72-15.85Z"/><path class="cls-1" d="M97.14,81.25v6.43a3.54,3.54,0,0,1-3.53,3.54H59.21a3.54,3.54,0,0,1-3.53-3.54V53.61a3.54,3.54,0,0,1,3.53-3.54h34.4a3.54,3.54,0,0,1,3.53,3.54v6l-10.82.11L77.21,81.15Z"/></g></g></svg>